<?xml version="1.0" encoding="UTF-8" standalone="no"?>
<svg
   xmlns:dc="http://purl.org/dc/elements/1.1/"
   xmlns:cc="http://web.resource.org/cc/"
   xmlns:rdf="http://www.w3.org/1999/02/22-rdf-syntax-ns#"
   xmlns:svg="http://www.w3.org/2000/svg"
   xmlns="http://www.w3.org/2000/svg"
   xmlns:xlink="http://www.w3.org/1999/xlink"
   xmlns:sodipodi="http://sodipodi.sourceforge.net/DTD/sodipodi-0.dtd"
   xmlns:inkscape="http://www.inkscape.org/namespaces/inkscape"
   version="1.0"
   id="Layer_1"
   x="0px"
   y="0px"
   width="577"
   height="321"
   viewBox="0 0 792 612"
   enable-background="new 0 0 792 612"
   xml:space="preserve"
   sodipodi:version="0.32"
   inkscape:version="0.45.1"><defs
   id="defs422"><linearGradient
     inkscape:collect="always"
     xlink:href="#SVGID_1_"
     id="linearGradient2684"
     gradientUnits="userSpaceOnUse"
     x1="274.90771"
     y1="109.1191"
     x2="297.7518"
     y2="107.0521" /><linearGradient
     inkscape:collect="always"
     xlink:href="#SVGID_2_"
     id="linearGradient2686"
     gradientUnits="userSpaceOnUse"
     x1="274.94629"
     y1="121.6201"
     x2="298.3002"
     y2="119.5069" /><linearGradient
     inkscape:collect="always"
     xlink:href="#SVGID_3_"
     id="linearGradient2688"
     gradientUnits="userSpaceOnUse"
     x1="276.15231"
     y1="101.4658"
     x2="271.01831"
     y2="101.4658" /><linearGradient
     inkscape:collect="always"
     xlink:href="#SVGID_4_"
     id="linearGradient2690"
     gradientUnits="userSpaceOnUse"
     x1="268.13129"
     y1="101.377"
     x2="275.2041"
     y2="101.377" /><linearGradient
     inkscape:collect="always"
     xlink:href="#SVGID_4_"
     id="linearGradient2773"
     gradientUnits="userSpaceOnUse"
     x1="268.13129"
     y1="101.377"
     x2="275.2041"
     y2="101.377"
     gradientTransform="matrix(19.086826,0,0,19.086826,-4968.632,-1732.8547)" /><linearGradient
     inkscape:collect="always"
     xlink:href="#SVGID_3_"
     id="linearGradient2781"
     gradientUnits="userSpaceOnUse"
     x1="276.15231"
     y1="101.4658"
     x2="271.01831"
     y2="101.4658"
     gradientTransform="matrix(19.086826,0,0,19.086826,-4968.632,-1732.8547)" /></defs>



<linearGradient
   id="SVGID_1_"
   gradientUnits="userSpaceOnUse"
   x1="274.90771"
   y1="109.1191"
   x2="297.7518"
   y2="107.0521">
	<stop
   offset="0"
   style="stop-color:#878787"
   id="stop36" />
	<stop
   offset="0.0618"
   style="stop-color:#878787"
   id="stop38" />
	<stop
   offset="0.088"
   style="stop-color:#8F8F8F"
   id="stop40" />
	<stop
   offset="0.1281"
   style="stop-color:#A4A4A4"
   id="stop42" />
	<stop
   offset="0.1769"
   style="stop-color:#C7C7C7"
   id="stop44" />
	<stop
   offset="0.2323"
   style="stop-color:#F6F6F6"
   id="stop46" />
	<stop
   offset="0.2416"
   style="stop-color:#FFFFFF"
   id="stop48" />
	<stop
   offset="0.2677"
   style="stop-color:#FBFBFB"
   id="stop50" />
	<stop
   offset="0.2958"
   style="stop-color:#EEEEEE"
   id="stop52" />
	<stop
   offset="0.3249"
   style="stop-color:#D8D8D8"
   id="stop54" />
	<stop
   offset="0.3545"
   style="stop-color:#BABABA"
   id="stop56" />
	<stop
   offset="0.3844"
   style="stop-color:#949494"
   id="stop58" />
	<stop
   offset="0.3932"
   style="stop-color:#878787"
   id="stop60" />
	<stop
   offset="0.4479"
   style="stop-color:#8B8B8B"
   id="stop62" />
	<stop
   offset="0.5074"
   style="stop-color:#999999"
   id="stop64" />
	<stop
   offset="0.5693"
   style="stop-color:#AEAEAE"
   id="stop66" />
	<stop
   offset="0.6327"
   style="stop-color:#CDCDCD"
   id="stop68" />
	<stop
   offset="0.6968"
   style="stop-color:#F4F4F4"
   id="stop70" />
	<stop
   offset="0.7135"
   style="stop-color:#FFFFFF"
   id="stop72" />
	<stop
   offset="0.7383"
   style="stop-color:#F2F2F2"
   id="stop74" />
	<stop
   offset="0.7841"
   style="stop-color:#D0D0D0"
   id="stop76" />
	<stop
   offset="0.8453"
   style="stop-color:#9A9A9A"
   id="stop78" />
	<stop
   offset="0.8651"
   style="stop-color:#878787"
   id="stop80" />
	<stop
   offset="1"
   style="stop-color:#878787"
   id="stop82" />
</linearGradient>





<linearGradient
   id="SVGID_2_"
   gradientUnits="userSpaceOnUse"
   x1="274.94629"
   y1="121.6201"
   x2="298.3002"
   y2="119.5069">
	<stop
   offset="0"
   style="stop-color:#878787"
   id="stop95" />
	<stop
   offset="0.0618"
   style="stop-color:#878787"
   id="stop97" />
	<stop
   offset="0.088"
   style="stop-color:#8F8F8F"
   id="stop99" />
	<stop
   offset="0.1281"
   style="stop-color:#A4A4A4"
   id="stop101" />
	<stop
   offset="0.1769"
   style="stop-color:#C7C7C7"
   id="stop103" />
	<stop
   offset="0.2323"
   style="stop-color:#F6F6F6"
   id="stop105" />
	<stop
   offset="0.2416"
   style="stop-color:#FFFFFF"
   id="stop107" />
	<stop
   offset="0.2677"
   style="stop-color:#FBFBFB"
   id="stop109" />
	<stop
   offset="0.2958"
   style="stop-color:#EEEEEE"
   id="stop111" />
	<stop
   offset="0.3249"
   style="stop-color:#D8D8D8"
   id="stop113" />
	<stop
   offset="0.3545"
   style="stop-color:#BABABA"
   id="stop115" />
	<stop
   offset="0.3844"
   style="stop-color:#949494"
   id="stop117" />
	<stop
   offset="0.3932"
   style="stop-color:#878787"
   id="stop119" />
	<stop
   offset="0.4479"
   style="stop-color:#8B8B8B"
   id="stop121" />
	<stop
   offset="0.5074"
   style="stop-color:#999999"
   id="stop123" />
	<stop
   offset="0.5693"
   style="stop-color:#AEAEAE"
   id="stop125" />
	<stop
   offset="0.6327"
   style="stop-color:#CDCDCD"
   id="stop127" />
	<stop
   offset="0.6968"
   style="stop-color:#F4F4F4"
   id="stop129" />
	<stop
   offset="0.7135"
   style="stop-color:#FFFFFF"
   id="stop131" />
	<stop
   offset="0.7383"
   style="stop-color:#F2F2F2"
   id="stop133" />
	<stop
   offset="0.7841"
   style="stop-color:#D0D0D0"
   id="stop135" />
	<stop
   offset="0.8453"
   style="stop-color:#9A9A9A"
   id="stop137" />
	<stop
   offset="0.8651"
   style="stop-color:#878787"
   id="stop139" />
	<stop
   offset="1"
   style="stop-color:#878787"
   id="stop141" />
</linearGradient>







<linearGradient
   id="SVGID_3_"
   gradientUnits="userSpaceOnUse"
   x1="276.15231"
   y1="101.4658"
   x2="271.01831"
   y2="101.4658">
	<stop
   offset="0"
   style="stop-color:#FFFFFF"
   id="stop158" />
	<stop
   offset="1"
   style="stop-color:#878787"
   id="stop160" />
</linearGradient>






<linearGradient
   id="SVGID_4_"
   gradientUnits="userSpaceOnUse"
   x1="268.13129"
   y1="101.377"
   x2="275.2041"
   y2="101.377">
	<stop
   offset="0"
   style="stop-color:#FFFFFF"
   id="stop175" />
	<stop
   offset="1"
   style="stop-color:#000000"
   id="stop177" />
</linearGradient>
















































































<polygon
   style="fill:#ffffff"
   points="252.247,121.793 252.315,121.854 309.838,121.851 309.872,121.833 309.8,121.481 309.772,121.469 252.266,121.469 252.247,121.481 252.247,121.793 "
   id="polygon21"
   transform="matrix(19.086826,0,0,19.086826,-4968.632,-1732.8547)" /><polygon
   style="fill:#3c1107"
   points="302.852,90.788 302.795,90.8 302.795,107.767 306.585,107.798 305.755,95.057 302.852,90.788 "
   id="polygon23"
   transform="matrix(19.086826,0,0,19.086826,-4968.632,-1732.8547)" /><polygon
   points="307.708,120.759 306.682,109.047 304.748,108.029 303.829,108.079 256.501,111.075 256.538,120.993 305.917,120.993 305.922,120.759 307.708,120.759 "
   id="polygon25"
   transform="matrix(19.086826,0,0,19.086826,-4968.632,-1732.8547)" /><path
   style="fill:#fe9e32"
   d="M 811.98504,323.12094 L 811.85143,5.8888e-005 L 435.55465,53.977603 L 427.57636,78.943171 L 394.57524,63.940926 L 339.62427,68.960761 L 262.41805,35.959639 L 257.68452,33.821915 C 243.27397,29.928202 222.25937,28.401256 206.87539,30.615328 C 164.86529,36.684938 127.74141,62.604848 102.77584,102.45814 L 90.732055,96.922961 L 64.754884,98.927078 L 18.774721,149.90799 L -62.172508,117.91847 L -87.653421,119.9035 L -98.475651,353.77438 L 811.98504,323.12094 z "
   id="path27" /><polygon
   style="fill:#595959"
   points="304.316,105.291 253.343,109.052 252.612,109.886 253.135,110.724 258.043,111.139 304.525,108.217 306.509,109.155 308.285,109.155 309.015,108.217 308.285,107.171 305.046,105.499 304.316,105.291 "
   id="polygon29"
   transform="matrix(19.086826,0,0,19.086826,-4968.632,-1732.8547)" /><polygon
   style="fill:#363636"
   points="304.525,107.303 253.135,110.724 258.085,111.224 304.553,108.278 306.69,109.248 308.285,109.155 304.525,107.303 "
   id="polygon31"
   transform="matrix(19.086826,0,0,19.086826,-4968.632,-1732.8547)" /><polygon
   style="fill:#ffffff"
   points="304.702,105.983 252.774,109.702 252.612,109.886 304.725,106.378 309.015,108.217 308.912,108.056 308.8,107.899 306.082,106.625 304.702,105.983 "
   id="polygon33"
   transform="matrix(19.086826,0,0,19.086826,-4968.632,-1732.8547)" /><polygon
   style="fill:url(#linearGradient2684)"
   points="304.335,105.267 253.343,109.052 252.768,109.706 304.733,106.126 308.916,108.06 308.285,107.171 305.126,105.519 304.335,105.267 "
   id="polygon84"
   transform="matrix(19.086826,0,0,19.086826,-4968.632,-1732.8547)" /><polygon
   style="fill:#a8a8a8"
   points="305.126,105.519 304.335,105.267 304.794,106.156 306.205,106.81 305.126,105.519 "
   id="polygon86"
   transform="matrix(19.086826,0,0,19.086826,-4968.632,-1732.8547)" /><polygon
   style="fill:#a8a8a8"
   points="304.725,106.378 304.498,107.302 304.988,107.521 306.255,107.032 304.725,106.378 "
   id="polygon88"
   transform="matrix(19.086826,0,0,19.086826,-4968.632,-1732.8547)" /><polygon
   style="fill:#595959"
   points="309.872,121.735 252.247,121.696 253.004,122.852 309.26,122.852 309.872,121.735 "
   id="polygon90"
   transform="matrix(19.086826,0,0,19.086826,-4968.632,-1732.8547)" /><polygon
   style="fill:#a8a8a8"
   points="305.822,121.735 305.618,122.845 309.26,122.845 309.882,121.735 305.822,121.735 "
   id="polygon92"
   transform="matrix(19.086826,0,0,19.086826,-4968.632,-1732.8547)" /><polygon
   style="fill:url(#linearGradient2686)"
   points="252.978,120.593 252.247,121.481 309.8,121.481 309.068,120.593 252.978,120.593 "
   id="polygon143"
   transform="matrix(19.086826,0,0,19.086826,-4968.632,-1732.8547)" /><polygon
   style="fill:#a8a8a8"
   points="306.032,120.588 305.598,120.596 305.848,121.477 307.135,121.477 306.032,120.588 "
   id="polygon145"
   transform="matrix(19.086826,0,0,19.086826,-4968.632,-1732.8547)" /><polygon
   style="fill:none;stroke:#ba3d0d;stroke-width:0.47"
   points="292.817,93.302 301.803,91.973 301.803,95.61 296.818,96.252 296.812,97.199 301.695,96.619 301.695,100.097 296.8,100.592 296.793,101.584 301.803,101.126 301.803,104.567 292.737,105.284 292.817,93.302 "
   id="polygon147"
   transform="matrix(19.086826,0,0,19.086826,-4968.632,-1732.8547)" /><ellipse
   style="fill:#3c1107"
   sodipodi:ry="8.0629997"
   sodipodi:rx="6.7020001"
   sodipodi:cy="101.338"
   sodipodi:cx="271.56601"
   cx="271.56601"
   cy="101.338"
   rx="6.7020001"
   ry="8.0629997"
   id="ellipse149"
   transform="matrix(19.086826,0,0,19.086826,-4968.632,-1732.8547)" /><polygon
   style="fill:#ffffff"
   points="256.315,97.843 256.799,97.856 260.359,101.155 264.174,96.709 264.383,96.679 264.589,107.422 261.563,107.647 261.563,104.349 260.099,105.973 258.737,104.664 258.527,107.963 255.673,108.224 256.315,97.843 "
   id="polygon151"
   transform="matrix(19.086826,0,0,19.086826,-4968.632,-1732.8547)" /><path
   style="fill:#fe9e32"
   d="M 365.63961,223.22049 C 362.71933,298.82341 307.10031,360.14938 243.86566,364.32939 C 106.28782,373.24294 135.79605,313.55844 136.25413,243.43344 C 136.71222,171.93419 186.49066,106.4282 249.70623,98.182692 C 315.59395,89.53636 368.59807,146.03336 365.63961,223.22049 z "
   id="path153" /><path
   style="fill:#3c1107"
   d="M 340.63587,189.36046 C 337.73467,264.9252 281.9057,339.17296 218.69014,343.27662 C 81.112294,352.24743 135.79605,313.55844 136.25413,243.43344 C 136.71222,171.93419 186.49066,106.4282 249.70623,98.182692 C 315.59395,89.53636 343.59433,112.17334 340.63587,189.36046 z "
   id="path155" /><path
   style="fill:url(#linearGradient2781)"
   d="M 327.06513,196.17446 C 324.33572,271.7392 271.7706,334.3249 211.87614,337.24519 C 154.31027,340.07004 109.60893,286.47423 110.02884,216.38741 C 110.44875,144.86907 157.59321,79.382168 217.39223,71.117573 C 279.74889,62.452154 329.88998,118.96825 327.06513,196.17446 z "
   id="path162" /><polygon
   style="fill:#ffffff"
   points="281.646,106.13 276.698,95.445 280.572,94.975 282.092,98.693 283.767,94.452 287.903,93.929 282.326,106.025 281.646,106.13 "
   id="polygon164"
   transform="matrix(19.086826,0,0,19.086826,-4968.632,-1732.8547)" /><polygon
   style="fill:#ffffff"
   points="287.812,98.62 291.887,98.133 291.932,105.391 287.79,105.663 287.812,98.62 "
   id="polygon166"
   transform="matrix(19.086826,0,0,19.086826,-4968.632,-1732.8547)" /><polygon
   style="fill:#ffffff"
   points="286.806,93.948 290.919,93.321 290.889,97.306 286.768,97.854 286.806,93.948 "
   id="polygon168"
   transform="matrix(19.086826,0,0,19.086826,-4968.632,-1732.8547)" /><polygon
   style="fill:#ffffff"
   points="292.817,93.271 301.828,91.939 301.828,95.586 296.828,96.228 296.822,97.179 301.717,96.597 301.716,100.083 296.811,100.578 296.803,101.573 301.826,101.114 301.826,104.567 292.737,105.284 292.817,93.271 "
   id="polygon170"
   transform="matrix(19.086826,0,0,19.086826,-4968.632,-1732.8547)" /><path
   style="fill:#a8a8a8"
   d="M 284.65421,192.79609 C 284.65421,244.54047 249.68714,290.21525 206.89448,292.71562 C 164.4072,295.10148 132.9712,253.7785 136.23505,202.53037 C 139.38437,153.43905 173.47345,112.8032 212.77322,109.88292 C 252.3593,106.96263 284.65421,143.2276 284.65421,192.79609 z "
   id="path172" /><path
   style="fill:url(#linearGradient2773)"
   d="M 284.65421,197.22423 C 282.95548,245.78112 250.25975,285.92071 213.02135,287.82939 C 177.25264,289.66173 149.46222,255.24818 149.72943,210.20327 C 149.99665,164.31854 179.27584,122.27027 216.49515,116.90687 C 255.24141,111.3526 286.42928,147.65574 284.65421,197.22423 z "
   id="path179" /><path
   style="fill:#89a5c7"
   d="M 286.16207,202.24407 C 283.52808,248.51053 254.32524,284.2029 222.5075,285.27176 C 192.46484,286.34062 167.5947,256.06892 165.32337,215.01315 C 162.88026,170.48359 187.33048,126.5648 222.18303,119.99893 C 259.42142,113.01316 289.02509,151.60672 286.16207,202.24407 z "
   id="path181" /><path
   style="fill:#ffffff"
   d="M 275.45436,212.58913 C 272.59133,250.78187 251.29043,279.81293 228.90159,280.11832 C 207.77247,280.40462 190.95698,254.90462 190.28894,220.85372 C 189.52547,183.99706 207.69612,148.11383 232.33722,143.32304 C 258.63886,138.24594 278.60368,170.71263 275.45436,212.58913 z "
   id="path183" /><path
   style="fill:#89a5c7"
   d="M 275.33984,217.07453 C 273.71746,241.00941 262.34171,259.21824 250.50788,259.4282 C 239.34208,259.63815 230.52397,243.777 230.23767,222.4761 C 229.93228,199.38104 239.62838,176.87768 252.66469,173.84287 C 266.61716,170.57902 277.11491,190.83015 275.33984,217.07453 z "
   id="path185" /><ellipse
   style="fill:#ffffff"
   sodipodi:ry="0.37799999"
   sodipodi:rx="0.27700001"
   sodipodi:cy="100.134"
   sodipodi:cx="269.94101"
   transform="matrix(18.640194,4.107485,-4.107485,18.640194,-4436.4665,-2797.0846)"
   cx="269.94101"
   cy="100.134"
   rx="0.27700001"
   ry="0.37799999"
   id="ellipse187" /><ellipse
   style="fill:#ffffff"
   sodipodi:ry="0.252"
   sodipodi:rx="0.211"
   sodipodi:cy="99.085999"
   sodipodi:cx="270.43399"
   transform="matrix(17.599962,7.384693,-7.384693,17.599962,-3834.8554,-3582.7136)"
   cx="270.43399"
   cy="99.085999"
   rx="0.211"
   ry="0.252"
   id="ellipse189" /><path
   style="fill:#89a5c7"
   d="M 110.12427,216.42558 C 109.78071,271.22386 136.99852,315.9252 176.39373,331.48097 L 187.21596,294.29983 C 187.21596,294.29983 133.84919,279.73658 132.49403,215.60485 C 131.02434,147.67483 185.72719,115.87618 185.72719,115.87618 L 181.83348,83.504923 C 139.97607,107.24893 110.44875,159.98583 110.12427,216.42558 z "
   id="path191" /><path
   style="fill:#ffffff"
   d="M 136.25413,202.53037 C 136.54044,195.81181 136.17779,193.31143 136.86491,188.2916 L 113.46446,184.32154 C 111.36491,194.76203 110.18153,205.56517 110.12427,216.42558 C 110.00975,234.09998 112.77734,250.68643 117.85443,265.57416 L 143.8316,248.18606 C 138.58273,235.14976 135.56701,218.54422 136.25413,202.53037 z "
   id="path193" /><polygon
   style="fill:#3c1107"
   points="286.935,98.275 283.164,106.207 286.935,105.973 286.935,98.275 "
   id="polygon195"
   transform="matrix(19.086826,0,0,19.086826,-4968.632,-1732.8547)" /><polygon
   style="fill:#3c1107"
   points="279.99,94.138 281.065,96.959 281.719,94.924 279.99,94.138 "
   id="polygon197"
   transform="matrix(19.086826,0,0,19.086826,-4968.632,-1732.8547)" /><polygon
   style="fill:#3c1107"
   points="257.06,96.967 260.202,99.896 261.301,98.643 257.06,96.967 "
   id="polygon199"
   transform="matrix(19.086826,0,0,19.086826,-4968.632,-1732.8547)" /><polygon
   style="fill:#3c1107"
   points="259.287,106.367 259.287,108.17 260.858,108.094 259.287,106.367 "
   id="polygon201"
   transform="matrix(19.086826,0,0,19.086826,-4968.632,-1732.8547)" /><path
   style="fill:#3c1107"
   d="M 390.60518,299.28149 C 390.60518,299.28149 358.1194,229.8627 350.61828,211.86383 C 355.10368,262.86383 298.89298,343.00941 253.92442,358.04983 C 266.38811,357.28635 288.66244,353.58351 334.89073,303.3279 L 390.60518,299.28149 z "
   id="path203" /><polygon
   style="fill:#a8a8a8"
   points="257.166,98.197 256.375,97.867 255.778,108.23 256.538,108.251 257.166,98.197 "
   id="polygon205"
   transform="matrix(19.086826,0,0,19.086826,-4968.632,-1732.8547)" /><polygon
   style="fill:#a8a8a8"
   points="258.522,104.112 259.063,104.081 260.563,105.468 260.099,105.973 258.522,104.112 "
   id="polygon207"
   transform="matrix(19.086826,0,0,19.086826,-4968.632,-1732.8547)" /><polygon
   style="fill:#a8a8a8"
   points="260.38,101.514 260.884,101.954 264.392,97.882 264.174,96.709 260.38,101.514 "
   id="polygon209"
   transform="matrix(19.086826,0,0,19.086826,-4968.632,-1732.8547)" /><polygon
   style="fill:#a8a8a8"
   points="261.813,103.703 262.287,103.987 262.297,107.57 261.563,107.647 261.813,103.703 "
   id="polygon211"
   transform="matrix(19.086826,0,0,19.086826,-4968.632,-1732.8547)" /><polygon
   style="fill:#a8a8a8"
   points="280.993,95.67 277.955,96.083 282.467,105.953 281.583,106.059 276.566,95.525 280.258,94.896 280.993,95.67 "
   id="polygon213"
   transform="matrix(19.086826,0,0,19.086826,-4968.632,-1732.8547)" /><polygon
   style="fill:#a8a8a8"
   points="282.113,98.145 282.095,99.359 282.508,99.332 284.238,95.265 287.379,94.845 287.806,93.948 283.767,94.452 282.113,98.145 "
   id="polygon215"
   transform="matrix(19.086826,0,0,19.086826,-4968.632,-1732.8547)" /><polygon
   style="fill:#a8a8a8"
   points="287.663,97.725 287.663,94.582 290.858,94.168 290.919,93.321 286.806,93.948 286.721,97.882 287.663,97.725 "
   id="polygon217"
   transform="matrix(19.086826,0,0,19.086826,-4968.632,-1732.8547)" /><polygon
   style="fill:#a8a8a8"
   points="287.812,98.62 287.79,105.663 288.623,105.526 288.623,99.29 291.883,98.929 291.887,98.133 287.812,98.62 "
   id="polygon219"
   transform="matrix(19.086826,0,0,19.086826,-4968.632,-1732.8547)" /><polygon
   style="fill:#a8a8a8"
   points="292.817,93.271 292.737,105.284 293.588,105.267 293.768,94.033 301.624,92.96 301.828,91.939 292.817,93.271 "
   id="polygon221"
   transform="matrix(19.086826,0,0,19.086826,-4968.632,-1732.8547)" /><polygon
   style="fill:#a8a8a8"
   points="295.575,97.174 295.583,97.457 295.964,97.894 300.624,97.412 300.717,96.597 295.575,97.174 "
   id="polygon223"
   transform="matrix(19.086826,0,0,19.086826,-4968.632,-1732.8547)" /><polygon
   style="fill:#a8a8a8"
   points="296.663,101.461 296.62,101.852 296.916,102.343 301.699,102.002 301.561,101.151 296.663,101.461 "
   id="polygon225"
   transform="matrix(19.086826,0,0,19.086826,-4968.632,-1732.8547)" /><path
   style="fill:#a84300"
   d="M 597.88811,145.59437 C 597.94537,155.08052 598.63249,266.26128 598.65158,274.27775 C 591.24589,274.79309 537.49739,278.28598 529.13736,278.82041 C 529.17553,269.716 529.50001,161.32191 529.5191,153.74444 C 536.44762,152.86645 589.22269,146.5678 597.88811,145.59437 z M 602.01086,135.49744 L 520.05203,145.28898 L 519.63212,288.99369 L 608.19499,283.1913 L 607.29791,134.86757 L 602.01086,135.49744"
   id="path227" /><path
   style="fill:#a84300"
   d="M 787.57299,27.446915 C 787.57299,36.188681 787.57299,80.641899 787.57299,87.379548 C 779.99552,88.372063 692.15794,99.671464 692.15794,99.671464 L 691.96707,127.2901 C 691.96707,127.2901 775.98728,117.34587 785.43526,116.21974 C 785.43526,124.61795 785.43526,166.22723 785.43526,173.11757 C 777.64784,173.90013 691.79529,182.58464 691.79529,182.58464 L 691.62351,211.06218 C 691.62351,211.06218 778.2777,203.16023 787.51572,202.32041 C 787.51572,210.54684 787.51572,251.58351 787.51572,258.60746 C 779.46108,259.21824 633.04604,270.82303 623.57898,271.52925 C 623.65532,261.83314 624.9914,59.169219 625.04866,51.515402 C 632.47344,50.370193 777.60966,28.935687 787.57299,27.446915 z M 791.61939,17.273636 L 615.61977,43.28898 L 614.01648,281.81704 L 797.04005,267.34923 L 797.04005,191.89901 C 797.04005,191.89901 710.51947,199.83913 701.18601,200.65986 C 701.22418,196.86158 701.24327,194.47573 701.24327,191.15462 C 708.99252,190.35297 794.90233,181.66847 794.90233,181.66847 L 794.92141,105.51203 C 794.92141,105.51203 711.01573,115.47536 701.51049,116.58239 C 701.54866,112.99407 701.58683,111.02813 701.60592,107.99332 C 709.12613,106.98172 797.02096,95.739578 797.02096,95.739578 L 797.02096,16.414729 L 791.61939,17.273636"
   id="path229" /><path
   style="fill:#a84300"
   d="M 597.9072,120.26615 C 591.0932,121.08688 537.61191,128.20627 528.73654,129.38965 C 528.81288,120.85784 529.27097,74.114204 529.3664,65.105222 L 529.74814,64.341749 C 537.68826,63.101106 589.54717,55.19916 598.40345,53.843995 C 598.32711,62.891151 597.94537,113.39489 597.9072,120.26615 z M 416.96408,286.28336 C 414.61641,286.47423 412.61229,286.60784 409.99739,286.79871 C 407.40158,281.22535 324.83198,103.83239 319.71671,92.876554 C 329.94724,91.57865 377.6834,85.776255 383.58123,85.050956 C 386.06251,91.139653 415.66618,163.57416 415.66618,163.57416 C 415.66618,163.57416 449.02995,79.172213 450.97681,74.285986 C 455.59582,73.694294 505.67965,67.357468 518.65869,65.677827 C 512.03556,80.069294 419.15907,281.49257 416.96408,286.28336 M 329.03108,190.90649 C 326.01536,270.95664 268.5831,337.30245 203.15346,340.37543 C 140.24328,343.37206 91.400094,286.58875 91.820004,212.30282 C 92.316261,136.58539 143.79343,67.1666 209.16581,58.367573 C 277.30578,49.148636 332.12314,109.06218 329.03108,190.90649 M 28.547176,316.68868 C 28.547176,308.02326 28.547176,246.50642 28.547176,246.50642 C 28.547176,246.50642 0.6994964,277.33164 -4.4348598,283.00043 C -9.6837369,277.92333 -34.267569,254.31293 -34.267569,254.31293 C -34.267569,254.31293 -38.199455,316.32603 -38.638452,323.44541 C -44.803497,323.99893 -75.399679,326.80469 -83.56884,327.58725 C -82.938975,317.39489 -72.479394,148.01839 -71.96405,139.54384 C -70.513451,139.54384 -69.97902,139.58202 -69.062853,139.58202 C -66.543392,141.94878 1.1957539,204.72535 1.1957539,204.72535 L 4.4023406,200.98434 C 4.4023406,200.98434 65.556531,129.69504 73.000393,121.01054 C 73.305783,136.28 76.531456,304.9121 76.703238,313.11944 C 69.793807,313.63478 36.315514,316.09698 28.547176,316.68868 M 602.46895,43.670717 L 528.5075,54.874684 L 525.93077,55.19916 L 444.1819,65.544219 C 444.1819,65.544219 421.98392,121.73584 415.51349,138.11233 C 409.1194,122.51839 389.63175,74.74407 389.63175,74.74407 L 309.23804,84.516524 C 284.50151,54.664729 248.50376,38.574534 208.36416,44.01428 C 149.61491,51.992573 100.88625,103.88965 83.402713,168.26952 L 82.21933,106.8672 L 76.894106,107.7261 L 71.168058,108.58501 C 71.168058,108.58501 6.2919364,184.18793 0.41319401,191.02101 C -6.0763268,185.02775 -65.245487,130.17221 -65.245487,130.17221 L -80.877598,129.79048 L -93.723032,337.98957 L -29.705817,332.11083 C -29.705817,332.11083 -27.014575,289.64264 -26.07932,275.32752 C -18.520937,282.56143 -3.9386023,296.59025 -3.9386023,296.59025 C -3.9386023,296.59025 10.834601,280.23284 19.041936,271.14751 C 19.041936,287.04684 19.041936,326.88104 19.041936,326.88104 L 86.342085,321.86121 L 85.464091,276.32004 C 103.78744,330.39302 148.1834,366.52438 201.56925,363.96674 C 275.14897,360.45477 339.7197,285.23359 343.13624,194.38029 C 343.53707,183.3672 343.02172,172.75492 341.70473,162.52438 L 404.15682,296.76203 L 423.22456,295.27326 L 519.65121,86.138905 L 519.13586,140.21188 L 607.33609,128.49257 L 607.96595,42.754549 L 602.46895,43.670717"
   id="path231" /><path
   style="fill:none;stroke:#000000;stroke-width:25.9046402"
   d="M -44.078197,468.14264 C -46.788527,457.07228 -52.72453,451.74706 -61.828946,452.12879 C -67.192344,452.35784 -71.715921,455.29721 -75.380592,460.87056 C -79.026176,466.50117 -80.858511,473.20065 -80.858511,481.02625 C -80.858511,488.60372 -79.045263,495.13141 -75.380592,500.55207 C -71.715921,506.0109 -67.192344,508.70215 -61.828946,508.56854 C -53.087179,508.41584 -47.18935,502.74706 -44.078197,491.46674 L -13.539276,502.38441 C -16.803123,518.4746 -23.044515,530.76652 -32.187105,539.29833 C -40.699829,547.4484 -50.834934,551.49481 -62.535158,551.53298 C -76.29676,551.53298 -88.073331,544.71899 -97.903047,531.09099 C -107.65641,517.65387 -112.50447,501.31554 -112.50447,481.98059 C -112.50447,462.53111 -107.65641,445.79197 -97.903047,431.78224 C -88.073331,417.56255 -76.29676,410.04234 -62.535158,409.20252 C -51.369365,408.57266 -41.577823,411.66472 -33.160533,418.66959 C -24.227898,426.07528 -17.910159,437.2029 -14.245488,451.91884 L -44.078197,468.14264 z "
   id="path233" /><path
   style="fill:#3c1107"
   d="M -50.682239,405.67146 L 1.1194066,419.45215 C 1.1194066,419.45215 3.7915622,449.24668 2.7990473,449.97198 C 1.844706,450.65911 2.7990473,527.4645 3.4289125,536.09174 C 3.5052598,537.10334 0.96671197,549.6243 0.96671197,549.6243 L -62.554245,555.21674 C -62.554245,555.21674 -45.166146,548.38366 -36.557988,542.82939 C -27.930743,537.29421 -18.101027,516.41322 -13.558363,502.38441 C -19.933363,498.54795 -35.94721,492.402 -43.333811,489.30993 C -50.109634,517.00491 -66.696086,510.22909 -71.639574,507.1752 C -76.563975,504.12131 -81.488376,490.55057 -81.488376,484.40462 C -81.488376,478.25866 -82.080068,458.37019 -69.177374,454.24743 C -48.353646,447.66248 -47.628347,465.33688 -44.288152,467.74182 C -34.916521,463.94354 -20.467794,456.1752 -14.283662,451.89975 C -16.87947,441.93643 -20.410533,433.67183 -20.582315,433.32827 C -30.83194,415.80656 -50.682239,405.67146 -50.682239,405.67146 z "
   id="path235" /><path
   style="fill:#ffffff"
   d="M -44.078197,468.14264 C -46.788527,457.07228 -52.72453,451.74706 -61.828946,452.12879 C -67.192344,452.35784 -71.715921,455.29721 -75.380592,460.87056 C -79.026176,466.50117 -80.858511,473.20065 -80.858511,481.02625 C -80.858511,488.60372 -79.045263,495.13141 -75.380592,500.55207 C -71.715921,506.0109 -67.192344,508.70215 -61.828946,508.56854 C -53.087179,508.41584 -47.18935,502.74706 -44.078197,491.46674 L -13.539276,502.38441 C -16.803123,518.4746 -23.044515,530.76652 -32.187105,539.29833 C -40.699829,547.4484 -50.834934,551.49481 -62.535158,551.53298 C -76.29676,551.53298 -88.073331,544.71899 -97.903047,531.09099 C -107.65641,517.65387 -112.50447,501.31554 -112.50447,481.98059 C -112.50447,462.53111 -107.65641,445.79197 -97.903047,431.78224 C -88.073331,417.56255 -76.29676,410.04234 -62.535158,409.20252 C -51.369365,408.57266 -41.577823,411.66472 -33.160533,418.66959 C -24.227898,426.07528 -17.910159,437.2029 -14.245488,451.91884 L -44.078197,468.14264 z "
   id="path237" /><polygon
   style="fill:#3c1107"
   points="264.764,111.771 263.978,111.98 264.569,111.977 264.624,113.769 262.259,113.875 262.259,114.913 264.492,114.91 264.494,116.62 262.335,116.686 262.335,117.779 264.655,117.748 264.591,119.656 266.065,119.644 266.065,112.536 264.764,111.771 "
   id="polygon239"
   transform="matrix(19.086826,0,0,19.086826,-4968.632,-1732.8547)" /><polygon
   style="fill:#ffffff"
   points="260.473,112.219 264.569,111.977 264.569,113.769 262.259,113.875 262.259,114.913 264.513,114.83 264.513,116.691 262.259,116.744 262.259,117.757 264.569,117.723 264.569,119.434 260.473,119.443 260.473,112.219 "
   id="polygon241"
   transform="matrix(19.086826,0,0,19.086826,-4968.632,-1732.8547)" /><polygon
   style="fill:none;stroke:#000000;stroke-width:0.1635"
   points="260.473,112.219 264.569,111.977 264.569,113.769 262.259,113.875 262.259,114.913 264.513,114.83 264.513,116.691 262.259,116.744 262.259,117.757 264.569,117.723 264.569,119.434 260.473,119.443 260.473,112.219 "
   id="polygon243"
   transform="matrix(19.086826,0,0,19.086826,-4968.632,-1732.8547)" /><polygon
   style="fill:#3c1107"
   points="271.567,111.478 273.107,112.161 273.107,119.406 273.098,119.481 271.534,119.481 271.567,111.478 "
   id="polygon245"
   transform="matrix(19.086826,0,0,19.086826,-4968.632,-1732.8547)" /><polygon
   style="fill:#3c1107"
   points="267.466,119.644 269.298,119.648 269.298,117.907 267.475,116.555 267.466,119.644 "
   id="polygon247"
   transform="matrix(19.086826,0,0,19.086826,-4968.632,-1732.8547)" /><polygon
   style="fill:#3c1107"
   points="269.458,113.816 267.653,112.386 265.793,111.659 269.421,114.76 269.458,113.816 "
   id="polygon249"
   transform="matrix(19.086826,0,0,19.086826,-4968.632,-1732.8547)" /><polygon
   style="fill:#ffffff"
   points="265.548,111.846 265.745,111.835 269.421,114.76 269.421,111.731 271.462,111.611 271.462,119.328 271.31,119.328 267.475,116.555 267.475,119.427 265.548,119.431 265.548,111.846 "
   id="polygon251"
   transform="matrix(19.086826,0,0,19.086826,-4968.632,-1732.8547)" /><polygon
   style="fill:none;stroke:#000000;stroke-width:0.1635"
   points="265.548,111.846 265.745,111.835 269.421,114.76 269.421,111.731 271.462,111.611 271.462,119.328 271.31,119.328 267.475,116.555 267.475,119.427 265.548,119.431 265.548,111.846 "
   id="polygon253"
   transform="matrix(19.086826,0,0,19.086826,-4968.632,-1732.8547)" /><polygon
   style="fill:#3c1107"
   points="279.033,111.399 278.206,110.993 278.013,113.472 276.133,113.424 276.096,119.606 277.61,119.612 277.61,113.827 279.03,113.868 279.033,111.399 "
   id="polygon255"
   transform="matrix(19.086826,0,0,19.086826,-4968.632,-1732.8547)" /><polygon
   style="fill:none;stroke:#000000;stroke-width:0.3197"
   points="273.953,119.413 273.953,113.52 272.183,113.725 272.183,111.539 278.013,111.197 278.013,113.472 276.133,113.424 276.133,119.409 273.953,119.413 "
   id="polygon257"
   transform="matrix(19.086826,0,0,19.086826,-4968.632,-1732.8547)" /><polygon
   style="fill:#ffffff"
   points="273.953,119.413 273.953,113.52 272.183,113.725 272.183,111.539 278.013,111.197 278.013,113.472 276.133,113.424 276.133,119.409 273.953,119.413 "
   id="polygon259"
   transform="matrix(19.086826,0,0,19.086826,-4968.632,-1732.8547)" /><polygon
   style="fill:none;stroke:#000000;stroke-width:0.1635"
   points="273.953,119.413 273.953,113.52 272.183,113.725 272.183,111.539 278.013,111.197 278.013,113.472 276.133,113.424 276.133,119.409 273.953,119.413 "
   id="polygon261"
   transform="matrix(19.086826,0,0,19.086826,-4968.632,-1732.8547)" /><path
   style="fill:#3c1107"
   d="M 485.71483,438.90162 L 465.44462,477.07527 L 498.63661,547.1621 L 516.4828,508.43493 L 498.50301,478.71674 C 506.02321,473.20065 511.38661,467.24556 514.65046,460.77513 C 517.89522,454.2856 519.49851,445.8874 519.49851,435.63778 C 519.49851,430.92333 517.66618,424.41472 514.00151,416.24556 C 509.2298,405.51876 501.93863,398.20851 492.20435,394.37206 C 484.76049,391.20364 458.70697,381.5648 446.33871,382.32827 L 473.42292,400.09811 L 485.71483,438.90162 z M 417.76573,422.48695 C 421.88849,422.31517 425.4959,424.03299 428.51161,427.58313 C 431.52733,431.13328 433.05428,435.44691 433.05428,440.35222 C 433.05428,445.46749 431.58459,449.83837 428.70248,453.48396 C 425.80129,457.07228 422.17479,458.94279 417.76573,459.0764 L 401.71371,459.57266 L 401.71371,423.17408 L 417.76573,422.48695"
   id="path263" /><path
   style="fill:#ffffff"
   d="M 357.01236,546.16958 L 401.4465,546.11232 L 401.4465,500.8002 L 420.05615,500.41846 L 444.69724,545.97872 L 501.97681,545.84511 L 463.61229,476.23545 C 470.94163,470.50941 476.17142,464.30619 479.33983,457.58763 C 482.48916,450.83089 484.07336,442.14638 484.07336,431.53411 C 484.07336,426.60971 482.29829,419.92932 478.70997,411.39751 C 474.09095,400.21263 466.99066,392.61607 457.52359,388.6651 C 450.23242,385.34399 440.53631,384.027 428.45435,384.7523 L 357.03145,388.91323 L 357.03145,546.16958 L 357.01236,546.16958 z M 417.19313,424.03299 C 421.22045,423.82303 424.75151,425.59811 427.69088,429.30095 C 430.66843,433.04197 432.13811,437.45102 432.13811,442.60447 C 432.13811,447.92969 430.72569,452.49144 427.88175,456.30881 C 425.0569,460.04983 421.48766,461.99668 417.17404,462.13029 L 401.4465,462.62655 L 401.4465,424.75828 L 417.19313,424.03299"
   id="path265" /><path
   style="fill:none;stroke:#000000;stroke-width:3.12069607"
   d="M 357.01236,546.16958 L 401.4465,546.11232 L 401.4465,500.8002 L 420.05615,500.41846 L 444.69724,545.97872 L 501.97681,545.84511 L 463.61229,476.23545 C 470.94163,470.50941 476.17142,464.30619 479.33983,457.58763 C 482.48916,450.83089 484.07336,442.14638 484.07336,431.53411 C 484.07336,426.60971 482.29829,419.92932 478.70997,411.39751 C 474.09095,400.21263 466.99066,392.61607 457.52359,388.6651 C 450.23242,385.34399 440.53631,384.027 428.45435,384.7523 L 357.03145,388.91323 L 357.03145,546.16958 L 357.01236,546.16958 z M 417.19313,424.03299 C 421.22045,423.82303 424.75151,425.59811 427.69088,429.30095 C 430.66843,433.04197 432.13811,437.45102 432.13811,442.60447 C 432.13811,447.92969 430.72569,452.49144 427.88175,456.30881 C 425.0569,460.04983 421.48766,461.99668 417.17404,462.13029 L 401.4465,462.62655 L 401.4465,424.75828 L 417.19313,424.03299"
   id="path267" /><path
   style="fill:#3c1107"
   d="M 663.48953,515.82153 L 682.17553,547.8874 L 680.11415,467.1883 L 627.4536,376.50679 L 588.82187,370.68531 L 663.48953,515.82153 z M 560.15345,525.02138 L 551.22082,550.02512 L 589.68077,549.81517 L 596.34208,524.79234 L 560.15345,525.02138 M 571.70098,490.14975 L 585.21446,458.12206 L 599.37688,489.63441 L 571.70098,490.14975"
   id="path269" /><path
   style="fill:#ffffff"
   d="M 612.62314,524.58238 L 621.15495,545.57789 L 679.25525,545.46337 L 587.48579,373.85372 L 582.88586,374.12094 L 496.88063,545.8642 L 550.07561,545.78785 L 558.22568,525.09773 L 612.62314,524.58238 z M 572.36902,489.69167 L 585.09993,457.03411 L 598.34619,489.17632 L 572.36902,489.69167"
   id="path271" /><path
   style="fill:none;stroke:#000000;stroke-width:3.12069607"
   d="M 612.62314,524.58238 L 621.15495,545.57789 L 679.25525,545.46337 L 587.48579,373.85372 L 582.88586,374.12094 L 496.88063,545.8642 L 550.07561,545.78785 L 558.22568,525.09773 L 612.62314,524.58238 z M 572.36902,489.69167 L 585.09993,457.03411 L 598.34619,489.17632 L 572.36902,489.69167"
   id="path273" /><polygon
   style="fill:#3c1107"
   points="302.62,117.99 302.748,116.967 303.809,117.217 303.809,119.42 302.702,119.543 302.62,117.99 "
   id="polygon275"
   transform="matrix(19.086826,0,0,19.086826,-4968.632,-1732.8547)" /><polygon
   style="fill:#3c1107"
   points="298.8,117.221 298.801,110.254 298.932,109.825 300.704,110.047 300.704,117.119 298.8,117.221 "
   id="polygon277"
   transform="matrix(19.086826,0,0,19.086826,-4968.632,-1732.8547)" /><polygon
   style="fill:#ffffff"
   points="295.913,110.199 298.8,110.031 298.8,117.221 302.554,117.163 302.554,119.352 295.913,119.366 295.913,110.199 "
   id="polygon279"
   transform="matrix(19.086826,0,0,19.086826,-4968.632,-1732.8547)" /><polygon
   style="fill:none;stroke:#000000;stroke-width:0.1635"
   points="295.913,110.199 298.8,110.031 298.8,117.221 302.554,117.163 302.554,119.352 295.913,119.366 295.913,110.199 "
   id="polygon281"
   transform="matrix(19.086826,0,0,19.086826,-4968.632,-1732.8547)" /><path
   style="fill:#ffffff"
   d="M 208.42142,115.43718 C 169.75151,120.70515 139.30803,162.18082 139.04081,207.4166 C 138.73542,251.79347 167.67105,285.71076 204.87127,283.9166 C 243.57936,282.027 277.57299,242.46001 279.32898,194.62842 C 281.14223,145.72798 248.7328,109.95926 208.42142,115.43718 z M 287.65084,196.76615 C 285.66581,250.99182 247.47307,295.90312 203.93602,298.04085 C 162.11678,300.02588 129.63101,261.54684 129.9364,211.23396 C 130.24178,159.90949 164.48355,112.89863 207.94425,106.88628 C 253.25638,100.68307 289.7313,141.29983 287.65084,196.76615"
   id="path283" /><polygon
   style="fill:#ffffff"
   points="268.71,95.23 268.964,96.816 269.146,96.741 268.929,95.111 268.71,95.23 "
   id="polygon285"
   transform="matrix(19.086826,0,0,19.086826,-4968.632,-1732.8547)" /><polygon
   style="fill:#ffffff"
   points="269.478,108.125 269.685,108.201 270.2,106.313 270.051,106.284 269.478,108.125 "
   id="polygon287"
   transform="matrix(19.086826,0,0,19.086826,-4968.632,-1732.8547)" /><path
   style="fill:#a8a8a8"
   d="M -44.479021,492.99369 C -47.60926,504.25491 -53.545263,510.00005 -62.287029,510.11457 C -64.405667,510.11457 -66.409784,509.71375 -68.280293,508.87393 C -67.898556,509.52288 -67.535907,510.11457 -67.135083,510.70626 C -63.451326,516.18418 -58.965922,518.85634 -53.62161,518.77999 C -44.879844,518.60821 -38.943841,512.93942 -35.851775,501.65911 L -15.161656,509.08388 C -14.741746,507.40424 -14.321836,505.70551 -13.959186,503.93044 L -44.479021,492.99369 z "
   id="path289" /><path
   style="fill:#a8a8a8"
   d="M -89.676625,541.28336 C -99.429993,527.84623 -104.23987,511.48882 -104.23987,492.19204 C -104.23987,472.72348 -99.429993,456.02251 -89.676625,441.95551 C -79.846909,427.774 -68.070338,420.21562 -54.270562,419.41397 C -43.772808,418.76502 -34.477524,421.5517 -26.38471,427.774 C -28.579695,424.98733 -30.965548,422.42969 -33.59953,420.21562 C -41.997733,413.24893 -51.808362,410.0996 -62.935981,410.76764 C -76.735757,411.58837 -88.512328,419.18493 -98.322957,433.30918 C -108.05724,447.39526 -112.90529,464.11532 -112.90529,483.5648 C -112.90529,502.86158 -108.05724,519.21899 -98.322957,532.65611 C -94.830068,537.44691 -91.127223,541.37879 -87.17625,544.48994 C -88.016071,543.42108 -88.855891,542.44765 -89.676625,541.28336 z "
   id="path291" /><polygon
   style="fill:#a8a8a8"
   points="262.08,115.445 264.492,115.379 264.492,114.91 262.08,114.976 262.08,115.445 "
   id="polygon293"
   transform="matrix(19.086826,0,0,19.086826,-4968.632,-1732.8547)" /><polygon
   style="fill:#a8a8a8"
   points="261.072,112.75 264.548,112.536 264.548,112.055 260.45,112.297 260.45,119.523 261.072,119.52 261.072,112.75 "
   id="polygon295"
   transform="matrix(19.086826,0,0,19.086826,-4968.632,-1732.8547)" /><polygon
   style="fill:#a8a8a8"
   points="262.068,117.833 262.068,118.293 264.548,118.264 264.548,117.803 262.068,117.833 "
   id="polygon297"
   transform="matrix(19.086826,0,0,19.086826,-4968.632,-1732.8547)" /><polygon
   style="fill:#a8a8a8"
   points="266.177,112.366 269.614,115.162 269.917,115.391 269.917,112.265 271.44,112.17 271.44,111.691 269.398,111.811 269.398,114.838 265.723,111.916 265.525,111.927 265.525,119.51 266.194,119.386 266.177,112.366 "
   id="polygon299"
   transform="matrix(19.086826,0,0,19.086826,-4968.632,-1732.8547)" /><polygon
   style="fill:#a8a8a8"
   points="274.53,113.279 274.146,113.303 273.926,113.331 273.926,119.401 274.53,119.401 274.53,113.279 "
   id="polygon301"
   transform="matrix(19.086826,0,0,19.086826,-4968.632,-1732.8547)" /><polygon
   style="fill:#a8a8a8"
   points="272.7,112.123 277.991,111.758 277.991,111.277 272.161,111.621 272.161,113.725 272.7,113.647 272.7,112.123 "
   id="polygon303"
   transform="matrix(19.086826,0,0,19.086826,-4968.632,-1732.8547)" /><path
   style="fill:#a8a8a8"
   d="M 368.50263,399.06742 L 436.68078,394.90649 C 448.76274,394.18119 458.47793,395.49818 465.73093,398.78111 C 468.13587,399.83089 470.42628,401.09062 472.50675,402.59848 C 468.36491,396.94878 463.24964,392.74968 457.06551,390.15387 C 449.79343,386.85185 440.07823,385.57303 427.99627,386.27924 L 356.61154,390.44017 L 356.61154,547.67744 L 368.50263,547.67744 L 368.50263,399.06742 L 368.50263,399.06742 z "
   id="path305" /><polygon
   style="fill:#a8a8a8"
   points="283.019,116.753 282.294,116.833 283.616,119.471 284.405,119.471 283.019,116.753 "
   id="polygon307"
   transform="matrix(19.086826,0,0,19.086826,-4968.632,-1732.8547)" /><path
   style="fill:#a8a8a8"
   d="M 436.14634,465.33688 C 438.95211,461.57677 440.38362,454.91547 440.38362,449.60933 C 440.38362,444.49406 438.91393,440.06592 435.93639,436.28673 C 434.04679,433.91996 431.96633,432.35484 429.65682,431.57228 C 430.9929,434.35896 431.7182,437.50828 431.7182,440.963 C 431.7182,446.23096 430.30578,450.79272 427.44275,454.59099 C 424.65608,458.3511 421.06775,460.31704 416.73504,460.45065 L 402.32449,460.64152 L 402.32449,471.73096 L 425.41955,471.21562 C 429.75226,471.08201 433.30241,469.15424 436.14634,465.33688 z "
   id="path309" /><polygon
   style="fill:#a8a8a8"
   points="291.566,114.718 291.274,115.599 291.645,116.495 290.438,116.51 290.256,116.979 292.485,116.951 291.566,114.718 "
   id="polygon311"
   transform="matrix(19.086826,0,0,19.086826,-4968.632,-1732.8547)" /><polygon
   style="fill:#a8a8a8"
   points="291.309,110.736 290.835,110.47 286.329,119.466 287.006,119.439 291.309,110.736 "
   id="polygon313"
   transform="matrix(19.086826,0,0,19.086826,-4968.632,-1732.8547)" /><polygon
   style="fill:#a8a8a8"
   points="293.072,118.095 292.319,118.099 292.808,119.259 293.561,119.258 293.072,118.095 "
   id="polygon315"
   transform="matrix(19.086826,0,0,19.086826,-4968.632,-1732.8547)" /><polygon
   style="fill:#a8a8a8"
   points="296.62,110.884 298.778,110.792 298.778,110.108 295.89,110.279 295.89,119.448 296.62,119.321 296.62,110.884 "
   id="polygon317"
   transform="matrix(19.086826,0,0,19.086826,-4968.632,-1732.8547)" /><polygon
   style="fill:#a8a8a8"
   points="298.642,117.87 302.427,117.822 302.531,117.241 298.619,117.293 298.642,117.87 "
   id="polygon319"
   transform="matrix(19.086826,0,0,19.086826,-4968.632,-1732.8547)" /><path
   style="fill:#fe9e32"
   d="M -94.925502,528.95327 C -104.10627,516.20327 -108.80162,500.39938 -108.80162,481.99968 C -108.80162,463.40911 -104.10627,447.22348 -94.868241,433.88179 C -85.630218,420.55918 -74.979769,413.68793 -62.306116,412.94354 C -52.018317,412.29459 -43.238377,415.10035 -35.546386,421.57078 C -27.816222,427.94578 -22.242868,437.64189 -18.692719,450.16285 C -22.47191,452.22423 -36.596162,459.91622 -41.902299,462.85559 C -46.502224,450.62093 -55.148556,448.19691 -62.000727,448.48321 C -68.585682,448.73134 -74.139948,452.24331 -78.453571,458.9237 C -82.519065,465.08875 -84.542269,472.5517 -84.542269,481.06442 C -84.542269,489.36719 -82.499978,496.6011 -78.453571,502.65162 C -74.063601,509.17932 -68.452074,512.42408 -61.771685,512.30956 C -55.148556,512.19503 -46.635832,509.10297 -41.806865,496.27662 C -36.958811,498.01352 -22.433737,503.18605 -17.986506,504.80843 C -21.250353,518.4746 -26.785533,529.25866 -34.706566,536.62617 C -42.608512,544.18455 -51.674754,547.90649 -62.535158,547.90649 C -75.132463,547.86831 -85.744739,541.66509 -94.925502,528.95327 z M -62.745113,405.53785 C -77.632837,406.43493 -90.478271,414.56592 -100.93785,429.68269 C -111.05387,444.30319 -116.18823,461.90125 -116.18823,482.01876 C -116.18823,502.05993 -111.03478,519.29533 -100.88059,533.32415 C -90.344664,547.90649 -77.422882,555.25491 -62.516071,555.25491 C -49.842419,555.25491 -38.752973,550.80768 -29.591296,542.04683 C -19.990623,533.03785 -13.310234,520.00155 -9.9127789,503.18605 L -9.2638268,500.05581 L -46.578572,486.69504 L -47.628347,490.53149 C -51.140323,503.22423 -57.458062,504.82752 -61.905293,504.90387 C -65.9517,504.9993 -69.368242,502.91884 -72.288526,498.52887 C -75.5142,493.73807 -77.155667,487.85933 -77.155667,481.04533 C -77.155667,474.0023 -75.5142,467.9136 -72.269439,462.95102 C -69.291895,458.33201 -65.818092,455.98433 -61.695338,455.86981 C -57.152673,455.65986 -50.701326,456.84324 -47.704694,469.09698 L -46.540398,473.71599 L -9.9891262,453.82752 L -10.676252,451.04084 C -14.531791,435.56143 -21.288527,423.70851 -30.83194,415.80656 C -39.898182,408.30544 -50.644066,404.81255 -62.745113,405.53785"
   id="path321" /><path
   style="fill:#fe9e32"
   d="M 77.447624,408.32453 C 77.447624,413.80245 77.447624,430.17894 77.447624,435.10334 C 71.473447,435.37056 33.357056,437.12655 33.357056,437.12655 L 33.357056,464.2871 C 33.357056,464.2871 70.022848,462.91285 76.378761,462.70289 C 76.378761,468.10447 76.378761,485.66435 76.378761,490.7987 C 70.328238,490.93231 33.376143,491.8103 33.376143,491.8103 L 33.376143,518.53186 C 33.376143,518.53186 71.168058,517.94017 77.466711,517.88291 C 77.466711,523.01726 77.466711,537.98134 77.466711,543.03935 C 71.091711,543.05843 13.06776,543.17295 6.6927598,543.19204 C 6.6927598,536.35896 6.6927598,418.9368 6.6927598,412.50454 C 12.70511,412.16098 70.709974,408.74444 77.447624,408.32453 z M 80.940513,400.74706 L -0.73201555,405.53785 L -0.73201555,550.6359 L 84.872399,550.44503 L 84.872399,510.32453 C 84.872399,510.32453 47.061397,510.91622 40.762744,511.04983 C 40.762744,507.25155 40.762744,502.6898 40.762744,499.02512 C 46.851442,498.87243 83.765363,498.0517 83.765363,498.0517 L 83.78445,455.0109 C 83.78445,455.0109 47.118657,456.36607 40.762744,456.6142 C 40.762744,452.72048 40.762744,447.81517 40.762744,444.18867 C 46.756008,443.92146 84.853312,442.18456 84.853312,442.18456 L 84.853312,400.51802 L 80.940513,400.74706"
   id="path323" /><path
   style="fill:#fe9e32"
   d="M 209.01312,401.35784 C 209.01312,408.59174 209.01312,529.41135 209.01312,539.18381 C 203.30615,534.60297 132.93303,484.11831 132.93303,484.11831 C 132.93303,484.11831 132.93303,536.51165 132.93303,542.92482 C 127.62689,542.963 108.86454,542.963 103.53931,542.963 C 103.53931,536.20626 103.53931,414.54683 103.53931,406.41584 C 107.71933,409.75604 177.44351,465.20327 177.44351,465.20327 C 177.44351,465.20327 177.44351,409.39339 177.44351,403.22834 C 182.59695,402.90387 203.30615,401.72049 209.01312,401.35784 z M 212.506,393.76128 L 170.0569,396.26165 C 170.0569,396.26165 170.0569,438.32902 170.0569,449.87655 C 160.01723,441.87917 104.79905,397.96038 104.79905,397.96038 L 96.133626,398.43755 L 96.133626,550.44503 L 140.30054,550.33051 C 140.30054,550.33051 140.30054,510.91622 140.30054,499.54047 C 150.45473,507.67146 208.51686,548.25005 208.51686,548.25005 L 216.4188,548.25005 L 216.4188,393.51315 L 212.506,393.76128"
   id="path325" /><path
   style="fill:#fe9e32"
   d="M 334.03183,393.47498 C 334.03183,399.35372 334.03183,423.44129 334.03183,429.14825 C 327.9813,428.99556 298.16768,428.23209 298.16768,428.23209 C 298.16768,428.23209 298.16768,535.65274 298.16768,542.58126 C 292.6325,542.58126 269.49927,542.63852 263.945,542.63852 C 263.945,535.71 263.945,429.72086 263.945,429.72086 C 263.945,429.72086 236.55541,432.88927 230.21858,433.61457 C 230.21858,427.46861 230.21858,404.79346 230.21858,399.58276 C 236.49814,399.22011 326.98879,393.8758 334.03183,393.47498 z M 337.5438,385.84025 L 222.7938,392.59698 L 222.7938,441.86008 C 222.7938,441.86008 250.1834,438.74893 256.52023,438.00454 C 256.52023,445.71562 256.52023,550.08238 256.52023,550.08238 L 305.57337,549.94878 C 305.57337,549.94878 305.57337,442.94803 305.57337,435.82864 C 311.66207,436.00043 341.43751,436.72572 341.43751,436.72572 L 341.43751,385.63029 L 337.5438,385.84025"
   id="path327" /><path
   style="fill:#fe9e32"
   d="M 417.02135,420.31105 L 417.02135,420.31105 z M 417.36491,427.69766 L 417.36491,427.69766 C 420.20885,427.58313 422.57561,428.80469 424.80877,431.62954 C 427.2328,434.68343 428.43527,438.30993 428.43527,442.60447 C 428.43527,447.12804 427.29006,450.88815 424.92329,454.03748 C 422.78557,456.95776 420.26611,458.31292 417.07861,458.42745 C 417.07861,458.42745 409.80652,458.6374 405.14934,458.75192 C 405.14934,453.25492 405.14934,433.40462 405.14934,428.27026 C 409.42479,428.06031 417.36491,427.69766 417.36491,427.69766 M 417.02135,420.31105 L 397.74365,421.16996 L 397.74365,466.44391 L 417.28856,465.81405 C 422.78557,465.69953 427.34732,463.21824 430.84021,458.48471 C 434.16131,454.03748 435.82187,448.71225 435.82187,442.62355 C 435.82187,436.66846 434.06588,431.41959 430.57299,427.0487 C 426.87015,422.33426 422.3084,420.04384 417.02135,420.31105"
   id="path329" /><path
   style="fill:#fe9e32"
   d="M 585.21446,466.97834 C 588.192,474.21225 590.84507,480.6636 592.86827,485.588 C 587.9057,485.68343 582.86678,485.74069 577.84694,485.8743 C 579.7938,480.87355 582.35143,474.2886 585.21446,466.97834 z M 581.66431,455.71712 L 566.94836,493.50903 L 603.8432,492.72647 L 585.0045,447.08987 L 581.66431,455.71712"
   id="path331" /><path
   style="fill:#fe9e32"
   d="M 585.34806,377.69017 C 587.4667,381.60297 667.7268,531.70177 673.10929,541.77961 C 663.73766,541.7987 627.7399,541.85596 623.65532,541.85596 C 622.14746,538.21038 615.10443,520.87954 615.10443,520.87954 L 555.72531,521.39488 C 555.72531,521.39488 548.98766,538.36307 547.55615,542.04683 C 543.54791,542.04683 511.8447,542.10409 502.89298,542.16135 C 507.87464,532.19803 583.40121,381.31667 585.21446,377.69017 C 585.30989,377.69017 585.30989,377.69017 585.34806,377.69017 z M 587.29492,370.16996 L 580.53818,370.53261 L 490.90645,549.58613 L 552.57598,549.47161 C 552.57598,549.47161 559.31363,532.42707 560.76423,528.78149 C 565.09694,528.72423 605.79005,528.39975 610.14185,528.34249 C 611.64971,532.06442 618.67366,549.338 618.67366,549.338 L 685.42029,549.20439 L 589.6426,370.07453 L 587.29492,370.16996"
   id="path333" /><path
   style="fill:#fe9e32"
   d="M 730.78968,371.18156 C 730.78968,378.60634 730.78968,508.28224 730.78968,508.28224 C 730.78968,508.28224 795.6658,507.27063 802.42254,507.19429 C 802.42254,512.80581 802.42254,535.95813 802.42254,541.5124 C 795.6658,541.5124 689.86752,541.74144 683.07261,541.7987 C 683.07261,534.79384 683.07261,380.57228 683.07261,373.98733 C 688.72231,373.66285 724.51011,371.5633 730.78968,371.18156 z M 734.30165,363.54683 L 675.72418,367.00155 L 675.72418,549.20439 L 809.8664,548.899 L 809.8664,499.65499 C 809.8664,499.65499 744.97119,500.62842 738.21445,500.72385 C 738.21445,493.62355 738.21445,363.33688 738.21445,363.33688 L 734.30165,363.54683"
   id="path335" /><polygon
   style="fill:#3c1107"
   points="282.67,117.434 282.67,119.589 281.414,119.584 281.414,116.941 282.396,116.967 282.67,117.278 282.67,117.434 "
   id="polygon337"
   transform="matrix(19.086826,0,0,19.086826,-4968.632,-1732.8547)" /><path
   style="fill:#fe9e32"
   d="M 428.64522,388.43605 C 440.07823,387.71076 449.27808,388.93231 455.97756,392.00529 C 464.6048,395.6127 471.05615,402.65574 475.31251,412.80993 C 478.67179,420.84549 480.38961,427.10596 480.38961,431.51502 C 480.38961,441.55469 478.90084,449.78111 476.01872,456.00342 C 473.13661,462.1112 468.19313,467.95177 461.34096,473.31517 L 458.87875,475.26203 C 458.87875,475.26203 490.62015,532.86607 495.73542,542.10409 C 486.24926,542.18044 450.5569,542.25679 446.9304,542.25679 C 444.98355,538.66846 422.25114,496.67745 422.25114,496.67745 L 397.76274,497.15462 C 397.76274,497.15462 397.76274,536.12991 397.76274,542.39039 C 392.13212,542.39039 366.42217,542.44765 360.77247,542.44765 C 360.77247,535.53822 360.77247,398.91472 360.77247,392.40611 C 367.05203,392.04346 428.64522,388.43605 428.64522,388.43605 z M 428.20623,381.03037 L 353.32861,385.42034 L 353.32861,549.85334 L 405.13025,549.71973 C 405.13025,549.71973 405.13025,510.57265 405.13025,504.40761 C 409.13849,504.35035 415.16992,504.19765 417.86117,504.15948 C 419.82711,507.7478 442.48317,549.60521 442.48317,549.60521 L 508.19911,549.49069 C 508.19911,549.49069 470.9798,481.90424 468.32673,477.05619 C 474.77808,471.52101 479.70248,465.52775 482.68003,459.13366 C 486.03931,451.89975 487.73804,442.60447 487.73804,431.49593 C 487.73804,426.0371 485.9057,418.99406 482.10742,409.96599 C 477.10667,397.90312 469.30016,389.60035 458.91693,385.17221 C 451.22494,381.69841 440.86079,380.28598 428.20623,381.03037"
   id="path339" />



<path
   clip-rule="evenodd"
   id="path347"
   style="fill:#f5c929;fill-rule:evenodd" />






<text
   font-size="13"
   id="text361"
   style="font-size:13px;font-family:TradeGothic-Bold"
   x="-57.58083"
   y="273.14783"> </text>







<text
   font-size="13"
   id="text375"
   style="font-size:13px;font-family:TradeGothic-Bold"
   x="-29.39723"
   y="273.14783"> </text>






<text
   font-size="13"
   id="text387"
   style="font-size:13px;font-family:TradeGothic-Bold"
   x="6.7170706"
   y="273.14783"> </text>








<text
   font-size="13"
   id="text403"
   style="font-size:13px;font-family:TradeGothic-Bold"
   x="48.615971"
   y="273.14783"> </text>





<text
   font-size="13"
   id="text413"
   style="font-size:13px;font-family:TradeGothic-Bold"
   x="77.502174"
   y="273.14783"> </text>




</svg>